<svg width="135" height="169" viewBox="0 0 135 169" fill="none" xmlns="http://www.w3.org/2000/svg">
<g clip-path="url(#clip0_266_2)">
<path d="M79.7426 140.667C74.3458 144.165 70.4148 146.547 67.9496 147.812C66.0507 148.812 64.4683 148.479 63.2024 146.813C61.9698 145.147 61.8865 143.998 62.9525 143.365C65.5843 141.766 68.8157 139.451 72.6468 136.419C76.3779 133.454 78.9431 131.222 80.3422 129.723C77.9103 126.758 76.0948 124.776 74.8955 123.777L78.8931 120.778L84.6397 119.129L83.5403 122.577C84.0067 122.311 85.5059 121.728 88.0377 120.828L87.5879 125.326L86.6885 126.225L91.0359 132.521C89.3702 134.121 85.6058 136.836 79.7426 140.667Z" fill="#763A00"/>
<path d="M133.611 45.223C133.544 55.2171 133.627 62.5628 133.861 67.26C128.131 68.5259 121.168 70.5081 112.973 73.2065C103.212 76.4379 95.7332 79.4861 90.5362 82.3511L95.1835 89.0971L101.23 97.1923C95.4667 101.023 91.2858 104.038 88.6873 106.237L97.8819 116.531L87.588 125.326L88.0377 120.828C85.5059 121.728 84.0068 122.311 83.5404 122.577L84.6397 119.129L78.8931 120.778L83.8402 116.581C80.7087 114.649 76.8443 111.917 72.2471 108.386L82.9407 96.1929L70.3982 81.6015L54.6575 63.962C85.9056 43.8072 112.307 30.8482 133.861 25.085C133.727 30.7816 133.644 37.4943 133.611 45.223Z" fill="#FFE100"/>
<path d="M78.8931 120.628L84.5398 118.43L85.1394 118.48L85.2394 118.929L84.19 121.728L87.7379 120.129C88.3042 119.929 88.5874 120.079 88.5874 120.578C88.5541 121.911 88.3209 123.493 87.8878 125.326L86.8884 126.075L87.3881 121.628C86.5553 121.828 85.3227 122.277 83.6903 122.977C83.0573 123.21 82.8241 123.027 82.9907 122.427L83.8402 119.879C81.1418 120.712 79.093 121.378 77.6938 121.878L78.8931 120.628Z" fill="#763A00"/>
<path d="M80.0924 140.467L67.8496 147.413C70.5147 145.714 74.2791 142.899 79.1429 138.968L89.3869 130.173L91.1358 132.521C88.6373 134.82 84.9562 137.469 80.0924 140.467Z" fill="#542400"/>
<path d="M112.573 73.4066C104.378 76.1716 96.766 79.0033 89.7368 81.9016C93.7011 79.2032 100.43 75.6386 109.925 71.2079C120.352 66.3441 128.231 63.3126 133.561 62.1133L133.761 67.2602C128.464 68.3929 121.401 70.4417 112.573 73.4066Z" fill="#F9BE00"/>
<path d="M98.4815 93.7441L101.33 97.2421L87.7878 105.987C93.0514 99.4907 96.6159 95.4098 98.4815 93.7441Z" fill="#F9BE00"/>
<path d="M97.682 116.631L93.3845 120.079L88.0876 124.426L88.3875 122.427C91.4856 117.763 93.6843 114.765 94.9836 113.433L97.682 116.631Z" fill="#F9BE00"/>
<path d="M88.0877 124.426L86.0889 125.925L88.3875 122.427L88.0877 124.426Z" fill="#542400"/>
<path d="M134.71 24.5852C134.477 27.7833 134.394 34.7958 134.46 45.6227L134.66 67.7596L134.311 68.2094C127.148 69.7418 119.403 71.9238 111.074 74.7555C103.246 77.4539 96.7827 80.0857 91.6857 82.6508C93.8178 85.8822 97.3157 90.7127 102.18 97.1422C102.379 97.3754 102.346 97.5753 102.08 97.7419C96.816 101.207 92.7351 104.071 89.8368 106.337L98.7316 116.481C98.9314 116.681 98.9148 116.881 98.6816 117.08L92.0855 122.527C89.7868 124.426 88.3211 125.709 87.6881 126.375L91.8356 132.521L91.7857 133.071C90.4864 134.37 87.5881 136.469 83.0908 139.367C78.327 142.399 73.4299 145.247 68.3995 147.912L67.5 148.012C67.4001 147.812 67.5833 147.579 68.0497 147.313C80.0759 139.85 87.4049 134.903 90.0367 132.471L85.9891 126.525C85.8558 126.325 85.8725 126.142 86.0391 125.975L90.2366 121.928L96.4829 116.531C92.7518 112.033 89.8202 108.719 87.6881 106.587C87.4549 106.353 87.4715 106.154 87.7381 105.987C91.769 102.756 95.8333 99.7907 99.9308 97.0923C95.7 91.429 92.2354 86.5652 89.537 82.5009C89.3371 82.2344 89.3871 82.0345 89.6869 81.9013C94.9505 79.2362 101.48 76.5045 109.275 73.7061C117.904 70.5746 125.766 68.2427 132.861 66.7103C132.562 62.1796 132.428 55.2337 132.462 45.8726C132.495 36.7113 132.645 30.1985 132.911 26.3342C121.951 29.3324 108.659 34.7792 93.0349 42.6745C78.4436 50.0368 66.2175 57.2659 56.3566 64.3617C60.8873 69.2254 70.0652 79.7859 83.8903 96.0429C84.0569 96.2428 84.0569 96.426 83.8903 96.5926L78.4436 102.639L73.4465 108.336C79.3763 112.8 83.0575 115.481 84.49 116.381C84.7898 116.581 84.8065 116.814 84.54 117.08L76.3448 123.876C77.9105 125.442 79.5429 127.374 81.2419 129.673C81.4085 129.873 81.4085 130.056 81.2419 130.223C80.0426 131.655 77.4775 133.837 73.5465 136.769C69.6821 139.634 66.3007 141.882 63.4025 143.515L62.6029 143.615C62.4697 143.448 62.5863 143.232 62.9527 142.965L72.2472 136.019C75.8451 133.188 78.2104 131.122 79.343 129.823C77.4441 127.358 75.7452 125.475 74.246 124.176C74.0128 123.943 74.0295 123.727 74.296 123.527L82.5411 116.781C79.3097 114.649 75.5786 112.017 71.3478 108.885C71.1146 108.685 71.0979 108.486 71.2978 108.286L81.7916 96.2428L67.6499 79.8025L53.8581 64.4116C53.6582 64.1784 53.6749 63.9619 53.9081 63.762C63.9022 56.3664 76.8445 48.7209 92.7351 40.8256C109.059 32.6971 122.884 27.1337 134.211 24.1355C134.61 24.0355 134.777 24.1854 134.71 24.5852Z" fill="#0D131A"/>
<path d="M13.432 12.7921C11.3999 13.9247 9.6176 16.5399 8.08518 20.6374C6.78595 24.102 6.03639 27.4667 5.83651 30.7315C4.30408 26.1342 3.12145 20.1544 2.28861 12.7921C1.42245 5.26319 1.53905 1.34884 2.6384 1.04902C3.70444 0.749196 5.3368 1.88186 7.5355 4.44701C9.30112 6.51245 11.2666 9.29414 13.432 12.7921Z" fill="#0D131A"/>
<path d="M92.1353 8.09521C93.2346 9.86084 93.6844 13.1256 93.4845 17.8894C93.2846 22.0869 92.7183 25.7348 91.7855 28.8329C89.3203 31.4647 86.3887 34.0632 82.9907 36.6283C79.1596 39.5599 75.8949 41.5088 73.1965 42.4749C76.2947 44.9734 78.7765 47.855 80.6421 51.1198C81.8747 53.2518 82.9574 55.867 83.8902 58.9651C85.4892 63.9955 85.5892 69.359 84.19 75.0556C82.9574 80.0526 81.0085 83.9004 78.3434 86.5988C72.2137 92.3287 64.2851 95.8433 54.5575 97.1425C46.2291 98.2752 38.2172 97.6922 30.5217 95.3936C27.2237 94.2942 24.1921 92.3121 21.4271 89.4471C18.3289 86.2823 16.1636 82.5845 14.931 78.3537C13.7317 74.2894 13.4818 70.1085 14.1814 65.8111C14.7144 62.4131 15.7971 59.165 17.4295 56.0668C15.364 53.7349 13.0487 49.6873 10.4836 43.924C8.35152 39.0269 6.83575 34.896 5.93628 31.5313C6.10285 26.6342 7.06894 22.3701 8.83456 18.7389C10.1671 16.0072 11.6329 14.075 13.232 12.9423C15.8637 16.7068 18.4789 21.9204 21.0773 28.5831C23.809 35.5456 25.3581 41.209 25.7246 45.573C30.4884 41.209 36.5015 38.244 43.7639 36.6783C50.3933 35.2458 56.2065 35.2791 61.2036 36.7782C64.6016 31.3814 69.8151 25.5349 76.8443 19.2386C83.2072 13.5753 88.3042 9.86084 92.1353 8.09521Z" fill="#FFE100"/>
<path d="M34.8692 92.895C41.2988 89.7969 46.9954 87.6981 51.9591 86.5988C55.9567 85.7326 61.2703 85.3162 67.8997 85.3495C74.4292 85.3495 77.9104 85.7659 78.3435 86.5988C80.2091 90.1633 82.0746 95.1937 83.9402 101.69C85.939 108.752 87.4048 115.732 88.3376 122.627C90.7029 140.484 88.7707 151.744 82.541 156.407C77.9771 159.872 69.9984 159.489 58.6052 155.258C53.6081 153.459 49.927 152.277 47.5617 151.71C44.5302 151.011 41.4154 150.727 38.2172 150.861C34.9858 150.994 32.1209 150.628 29.6223 149.761C27.357 148.995 25.7246 147.979 24.7252 146.713C22.4599 143.782 21.6104 138.835 22.1767 131.872C22.6098 126.642 23.6758 121.328 25.3748 115.931L28.2232 107.836L31.0215 100.291C31.388 99.3912 32.1375 97.8921 33.2702 95.7933L34.8692 92.895Z" fill="#FFE100"/>
<path d="M34.8693 92.895C35.9354 92.5286 36.7682 93.528 37.3679 95.8933C38.0008 98.3918 37.8842 100.99 37.0181 103.689C36.0853 106.554 34.303 109.352 31.6712 112.084C29.0728 114.815 26.974 116.098 25.375 115.931C23.6093 115.965 21.877 115.698 20.178 115.132C18.6789 114.599 17.896 114.099 17.8294 113.633C17.8294 112.933 18.1959 112.317 18.9288 111.784L17.1298 108.486C16.5302 107.287 16.2637 106.587 16.3303 106.387C16.4969 106.121 17.1465 106.037 18.2792 106.137C18.2458 104.172 18.9787 103.589 20.4779 104.388C20.5445 102.822 21.1941 102.606 22.4267 103.739C23.4261 102.14 24.7587 100.524 26.4243 98.8915C27.8568 97.459 29.2227 96.293 30.5219 95.3935C31.5879 94.3608 33.0371 93.528 34.8693 92.895Z" fill="#FFE100"/>
<path d="M92.1354 8.09523C95.6 6.29629 99.1479 4.81383 102.779 3.64786C107.276 2.21537 109.892 2.0488 110.624 3.14815C111.557 4.54732 109.458 8.57827 104.328 15.241C99.5976 21.3374 95.3002 26.0346 91.4358 29.3327C92.6351 25.6348 93.318 21.9037 93.4846 18.1393C93.6511 14.175 93.2014 10.8269 92.1354 8.09523Z" fill="#0D131A"/>
<path d="M16.8799 146.413C18.6455 144.947 20.5444 143.898 22.5765 143.265C24.4421 147.696 28.4564 150.211 34.6194 150.811C31.6878 152.276 28.2065 153.326 24.1756 153.959C20.1113 154.558 17.7294 154.392 17.0298 153.459C15.6639 153.792 14.8644 153.609 14.6312 152.909C14.4313 152.343 14.5646 151.71 15.031 151.011C14.0649 149.745 14.6812 148.212 16.8799 146.413Z" fill="#FFE100"/>
<path d="M73.6963 158.706C76.3947 158.806 78.8599 158.34 81.0919 157.307C83.1907 156.341 84.6731 155.092 85.5393 153.559C87.2716 156.424 88.3376 159.139 88.7374 161.704C89.1371 164.336 88.7374 166.002 87.5381 166.701C87.5048 167.667 87.0551 168.15 86.1889 168.15C85.4227 168.117 84.7897 167.801 84.29 167.201C83.8903 168.3 82.2912 167.817 79.4929 165.752C76.6279 163.62 74.6957 161.271 73.6963 158.706Z" fill="#FFE100"/>
<path d="M41.865 78.1536L45.263 75.9549C45.9292 75.4552 46.9287 75.0055 48.2612 74.6057L51.0596 74.106L55.307 73.6562C55.2071 74.6223 54.8406 75.5884 54.2077 76.5545L48.7109 76.8544C46.8121 77.5539 45.6294 78.6033 45.163 80.0025L41.865 78.1536Z" fill="#B50005"/>
<path d="M45.1133 79.9527C45.7796 78.6535 46.9955 77.6374 48.7611 76.9045C50.6933 76.105 52.5422 76.0051 54.3078 76.6047C51.5761 80.2026 48.5113 81.3186 45.1133 79.9527Z" fill="#E50012"/>
<path d="M17.9291 112.933C18.4622 113.333 19.6615 113.549 21.527 113.583L26.1243 113.083L25.4247 115.831C23.5925 115.898 21.7769 115.615 19.9779 114.982C18.0791 114.316 17.3961 113.633 17.9291 112.933Z" fill="#F9BE00"/>
<path d="M48.1613 98.2414C48.128 97.7751 49.2774 97.3586 51.6093 96.9922L55.2072 97.1921C55.2405 97.5918 54.7908 98.0082 53.858 98.4413L51.6593 99.0909L49.5105 98.991C48.6111 98.8244 48.1613 98.5746 48.1613 98.2414Z" fill="#F9BE00"/>
<path d="M22.1767 134.77C23.376 143.665 28.2731 147.762 36.868 147.063C41.1987 146.696 45.3796 146.996 49.4105 147.962C52.8752 148.795 57.056 150.344 61.9531 152.609C67.4832 155.208 72.9466 155.508 78.3434 153.509C85.2393 150.977 89.0038 144.881 89.6367 135.22C89.5701 142.782 88.5707 148.329 86.6385 151.86C83.5403 157.623 77.7937 159.739 69.3987 158.206C66.6004 157.706 61.3368 156.174 53.6081 153.609C47.2785 151.51 43.1309 150.577 41.1654 150.811C34.9691 151.543 30.1719 150.661 26.7739 148.162C23.0095 145.397 21.4771 140.933 22.1767 134.77Z" fill="#F9BE00"/>
<path d="M18.5789 145.364C18.7454 145.131 19.445 144.781 20.6776 144.315L22.9263 143.515C23.5926 145.447 25.2416 147.163 27.8734 148.662C30.2719 150.028 32.504 150.711 34.5694 150.711C32.4706 151.844 30.122 152.693 27.5236 153.259C24.4254 148.629 21.4438 145.997 18.5789 145.364Z" fill="#F9BE00"/>
<path d="M77.4941 164.053L75.4453 161.554C74.779 160.555 74.3127 159.605 74.0461 158.706C78.9099 159.206 82.7077 157.507 85.4394 153.609C86.5388 155.308 87.205 156.54 87.4382 157.307C85.2062 157.44 83.1574 158.123 81.2919 159.355C79.393 160.588 78.1271 162.154 77.4941 164.053Z" fill="#F9BE00"/>
<path d="M26.0745 63.0126C27.6402 62.5795 29.1393 62.846 30.5718 63.8121C31.971 64.7782 32.9204 66.1774 33.4201 68.0096C33.9531 69.7753 33.8032 71.3743 32.9704 72.8068C32.2042 74.1393 31.0215 75.0555 29.4225 75.5552C27.8234 76.0216 26.241 75.855 24.6753 75.0555C23.1429 74.2559 22.1601 73.0733 21.727 71.5076C21.194 69.6753 21.3273 67.943 22.1268 66.3106C22.9263 64.6116 24.2422 63.5123 26.0745 63.0126Z" fill="#0D131A"/>
<path d="M25.7746 63.7119L28.0233 63.8119C28.7228 64.145 29.2059 64.6614 29.4724 65.3609C29.7389 66.1272 29.7389 66.86 29.4724 67.5596C29.1726 68.2925 28.6229 68.8089 27.8234 69.1087L25.5747 69.0088C24.8751 68.6756 24.4087 68.126 24.1755 67.3598C23.9423 66.5602 23.9923 65.8107 24.3254 65.1111C24.6253 64.4115 25.1083 63.9451 25.7746 63.7119Z" fill="white"/>
<path d="M61.8532 51.7191C63.7188 51.1195 65.5344 51.3194 67.3 52.3188C69.1323 53.3182 70.2483 54.834 70.648 56.8661C71.0145 58.5651 70.7646 60.1975 69.8985 61.7632C69.0656 63.3289 67.8663 64.3783 66.3006 64.9113C64.4683 65.5443 62.7194 65.4277 61.0537 64.5615C59.4546 63.7287 58.372 62.4794 57.8056 60.8138C57.1393 58.7483 57.2393 56.8328 58.1054 55.0672C58.905 53.3682 60.1542 52.2522 61.8532 51.7191Z" fill="#0D131A"/>
<path d="M61.5036 52.4686C62.2365 52.1355 62.986 52.1355 63.7522 52.4686C64.5184 52.7684 65.0515 53.3014 65.3513 54.0677C65.6178 54.7672 65.6178 55.5001 65.3513 56.2664C65.0848 57.0992 64.5684 57.6489 63.8022 57.9154C63.0027 58.2152 62.2531 58.2152 61.5535 57.9154C60.8206 57.6156 60.3043 57.0992 60.0045 56.3663C59.7046 55.6334 59.688 54.8838 59.9545 54.1176C60.221 53.3514 60.7374 52.8017 61.5036 52.4686Z" fill="white"/>
<path d="M44.8135 70.8578C44.7801 70.7245 45.1299 70.558 45.8628 70.3581L46.9622 70.1582L46.6624 70.8078L46.0127 71.2576L45.3132 71.2076L44.8135 70.8578Z" fill="#0D131A"/>
<path d="M78.9931 64.1117C80.259 64.6114 81.0919 65.9273 81.4916 68.0594C81.9247 70.1915 81.7581 72.2736 80.9919 74.3057C80.1591 76.6043 78.8599 78.32 77.0942 79.4527C75.3286 80.5853 73.6962 80.7852 72.1971 80.0523C70.698 79.3527 69.7153 78.0035 69.2489 76.0047C68.7492 73.9059 68.999 71.7739 69.9984 69.6085C71.0645 67.3098 72.4803 65.6442 74.2459 64.6114C75.9116 63.6787 77.494 63.5121 78.9931 64.1117Z" fill="#E50012"/>
<path d="M26.0244 83.1008C27.4902 84.9664 28.473 86.8153 28.9727 88.6475C29.4724 90.5797 29.2558 91.879 28.323 92.5452C27.4236 93.1782 26.141 92.995 24.4753 91.9956C23.0428 91.1627 21.5104 89.8468 19.878 88.0479C18.4456 86.4155 17.4461 84.7332 16.8798 83.0009C16.3135 81.2353 16.3968 79.986 17.1297 79.2531C18.0291 78.4203 19.395 78.4036 21.2272 79.2031C22.9929 79.9693 24.5919 81.2686 26.0244 83.1008Z" fill="#E50012"/>
<path d="M6.08624 2.19853C10.0839 5.99628 13.9649 11.5763 17.7293 18.9386C22.1934 27.7001 25.025 36.4449 26.2243 45.1731L25.2249 46.0726C23.8591 37.3111 20.8275 28.3997 16.1303 19.3384C12.5657 12.4092 8.98452 6.96238 5.38665 2.99805C4.35393 1.93202 3.60437 1.41566 3.13798 1.44897C2.53834 1.5156 2.22186 2.39841 2.18854 4.0974C2.02198 9.89397 3.20461 17.6894 5.73645 27.4836C8.8013 39.3432 12.7656 48.6877 17.6294 55.517L17.1297 56.7662C11.8328 49.9369 7.58535 40.6258 4.38724 28.8328C1.5889 18.4722 0.472893 10.1771 1.03922 3.94749C1.20579 1.74879 1.72215 0.532846 2.58831 0.299651C3.38784 0.0997688 4.55381 0.732728 6.08624 2.19853Z" fill="#0D131A"/>
<path d="M6.53595 32.4804L5.48657 29.9319C5.78639 25.9009 6.58592 22.353 7.88515 19.2882C9.15107 16.2566 10.8168 13.9413 12.8822 12.3423L13.6318 13.3917C11.4664 15.0907 9.76737 17.6725 8.53477 21.1371C7.33548 24.4684 6.66921 28.2495 6.53595 32.4804Z" fill="#0D131A"/>
<path d="M94.434 25.435C101.297 18.2725 106.244 12.0429 109.275 6.74601C110.241 5.08033 110.541 3.99764 110.175 3.49793L106.427 3.39799C100.597 4.53065 94.0509 7.49557 86.7885 12.2927C77.1276 18.6556 68.7825 26.8674 61.7533 36.9282L60.604 36.5784C67.9996 25.6848 76.4446 17.1232 85.939 10.8936C93.0348 6.22965 99.7642 3.36468 106.127 2.29864C108.992 1.79894 110.708 1.98216 111.274 2.84832C111.774 3.64784 111.457 5.1303 110.325 7.29569C107.16 13.2255 102.096 19.755 95.1336 26.8841C87.2716 34.9127 80.1424 40.2595 73.7462 42.9246L72.6969 42.1751C78.9931 39.51 86.2388 33.9299 94.434 25.435Z" fill="#0D131A"/>
<path d="M92.4851 28.2331L90.6362 29.7822C92.1353 25.085 92.9016 20.5544 92.9349 16.1903C92.9349 12.5591 92.5351 10.0606 91.7356 8.6947L92.735 7.99512C93.6011 9.49423 94.1008 11.9095 94.2341 15.2408C94.3674 19.3717 93.7844 23.7025 92.4851 28.2331Z" fill="#0D131A"/>
<path d="M80.4422 92.5949C80.209 91.8286 80.209 91.3956 80.4422 91.2956C80.7087 91.1957 80.9752 91.5288 81.2418 92.295C87.0716 108.452 89.9533 122.91 89.8866 135.669C89.7867 148.562 86.6552 156.207 80.4922 158.606C77.1275 159.905 72.3137 159.855 66.0507 158.456C62.253 157.623 57.2726 156.074 51.1096 153.809C48.5444 152.876 46.5789 152.26 45.2131 151.96L39.0167 151.51L31.1714 151.01C28.1732 150.344 25.7079 148.928 23.7758 146.763C21.3105 144.064 20.6942 138.251 21.9268 129.323C23.1595 120.195 25.9745 110.734 30.3719 100.94C30.6717 100.274 30.9548 99.9905 31.2213 100.09C31.4545 100.19 31.4212 100.573 31.1214 101.24C27.0905 111.101 24.492 120.378 23.326 129.073C22.2267 137.602 22.8097 143.132 25.075 145.663C26.9072 147.729 29.1226 149.061 31.7211 149.661L39.0167 150.211L45.8127 150.66C47.1786 150.927 49.0941 151.543 51.5593 152.509C64.9181 157.573 74.3458 159.056 79.8426 156.957C85.4726 154.825 88.2376 147.446 88.1377 134.82C88.0711 122.827 85.5059 108.752 80.4422 92.5949Z" fill="#0D131A"/>
<path d="M29.7223 95.1436L31.1714 95.5933C27.7068 97.9919 24.6586 101.123 22.0269 104.988C21.6604 105.554 21.3772 105.787 21.1774 105.687C20.9775 105.554 21.0608 105.204 21.4272 104.638C23.8258 100.54 26.5908 97.3756 29.7223 95.1436Z" fill="#0D131A"/>
<path d="M37.9173 78.7032C37.6175 78.5033 37.5342 78.3201 37.6675 78.1535L38.367 78.1036C39.5996 78.57 41.4486 77.9204 43.9138 76.1547C45.3462 75.122 46.5955 74.4391 47.6615 74.1059C48.7276 73.7395 50.2434 73.523 52.2089 73.4563L55.5569 72.9566C56.4563 72.6235 57.0227 72.0572 57.2559 71.2576C57.4224 70.8579 57.6057 70.6913 57.8055 70.7579C58.0054 70.7912 58.0721 71.0244 58.0054 71.4575C57.6057 73.4896 55.6735 74.5723 52.2089 74.7056L48.0113 75.3052C47.0119 75.6384 45.8626 76.2713 44.5634 77.2041C41.6984 79.2696 39.4831 79.7693 37.9173 78.7032Z" fill="#0D131A"/>
<path d="M42.4148 77.7537C45.0799 79.8191 47.5451 80.4521 49.8104 79.6526C51.0097 79.2195 52.0591 78.4533 52.9585 77.3539C53.858 76.2546 54.4743 75.022 54.8074 73.6561L56.1566 73.4062C55.9235 74.972 55.2239 76.4211 54.0579 77.7537C52.9585 79.0196 51.6593 79.9357 50.1602 80.5021L45.8627 80.7519C44.297 80.4188 42.7812 79.6692 41.3154 78.5032L42.4148 77.7537Z" fill="#0D131A"/>
<path d="M15.031 147.563C16.5635 145.564 19.0453 143.931 22.4766 142.666L22.9264 143.865C19.9948 145.031 17.8127 146.347 16.3802 147.812C15.1476 149.112 14.7812 150.078 15.2809 150.711L14.5313 151.76C13.4653 150.794 13.6319 149.395 15.031 147.563Z" fill="#0D131A"/>
<path d="M18.9786 147.413C19.445 147.179 19.7282 147.179 19.8281 147.413C19.9614 147.613 19.7948 147.846 19.3284 148.112C18.1957 148.779 17.213 149.578 16.3801 150.511C15.4807 151.477 15.1309 152.21 15.3308 152.71L17.0298 152.859L17.4795 153.959L15.4307 154.159C14.6312 154.059 14.1481 153.776 13.9816 153.309C13.6484 152.41 14.0982 151.31 15.3308 150.011C16.4301 148.845 17.6461 147.979 18.9786 147.413Z" fill="#0D131A"/>
<path d="M33.8699 150.661L35.9187 150.961C32.2209 152.793 28.0733 154.026 23.4761 154.659C18.9454 155.258 16.4969 154.942 16.1304 153.709C15.9305 153.076 16.3469 152.277 17.3797 151.311C18.479 150.244 19.7616 149.528 21.2274 149.162C21.6938 149.062 21.9603 149.112 22.0269 149.312C22.0935 149.545 21.9103 149.745 21.4772 149.911C20.3779 150.344 19.4285 150.894 18.6289 151.56C17.8627 152.227 17.5296 152.76 17.6295 153.159C17.7628 153.726 19.4285 153.859 22.6266 153.559C26.3577 153.193 30.1055 152.227 33.8699 150.661Z" fill="#0D131A"/>
<path d="M72.9966 158.656L74.4457 158.556C75.3452 160.988 77.0109 163.153 79.4428 165.052C81.6082 166.751 83.0073 167.418 83.6403 167.051C83.9401 166.851 83.8901 166.202 83.4904 165.102C83.1239 164.003 82.5409 162.804 81.7414 161.504C81.5082 161.171 81.4916 160.938 81.6914 160.805C81.858 160.705 82.0745 160.805 82.3411 161.105C83.3738 162.337 84.1067 163.736 84.5398 165.302C84.9728 166.935 84.8729 167.917 84.2399 168.25C83.2738 168.75 81.4916 168.034 78.8931 166.102C75.9948 163.936 74.0293 161.454 72.9966 158.656Z" fill="#0D131A"/>
<path d="M85.4394 160.455C85.2395 159.988 85.2562 159.705 85.4893 159.605C85.6892 159.505 85.9058 159.672 86.139 160.105C87.3049 162.304 87.9212 164.253 87.9879 165.952C88.0212 167.417 87.6714 168.3 86.9385 168.6L85.5893 168.65C84.9896 168.517 84.4566 168.2 83.9902 167.7L84.4899 166.601C85.3228 167.434 85.9891 167.734 86.4888 167.501C86.8885 167.301 87.0218 166.601 86.8885 165.402C86.722 164.069 86.2389 162.42 85.4394 160.455Z" fill="#0D131A"/>
<path d="M85.0396 154.059L85.939 152.959C87.7713 155.991 88.8873 158.956 89.287 161.854C89.6868 165.019 89.0372 166.968 87.3382 167.701L87.4881 166.302C88.3209 165.502 88.4875 163.87 87.9878 161.404C87.4881 159.006 86.5054 156.557 85.0396 154.059Z" fill="#0D131A"/>
<path d="M54.4077 76.0546L53.958 76.954C52.4922 76.4877 50.8765 76.5876 49.1109 77.2539C47.3452 77.9201 46.1793 78.8696 45.6129 80.1022L44.6135 79.8024C45.3131 78.3032 46.629 77.1706 48.5612 76.4044C50.4934 75.6382 52.4422 75.5216 54.4077 76.0546Z" fill="#0D131A"/>
<path d="M18.5289 53.3681C18.8954 52.8351 19.1952 52.6352 19.4284 52.7685C19.6616 52.9351 19.6116 53.2849 19.2785 53.8179C17.0132 57.6823 15.5807 61.6799 14.981 65.8108C14.3814 69.975 14.6479 74.1059 15.7805 78.2034C17.0132 82.6675 19.2285 86.4319 22.4266 89.4968C25.5914 92.495 29.5058 94.6437 34.1697 95.943C35.0691 96.2095 35.4856 96.4593 35.4189 96.6925L33.9698 96.8424C29.1726 95.9096 24.9585 93.7942 21.3273 90.4962C17.6961 87.1981 15.2475 83.2505 13.9816 78.6532C12.8156 74.4557 12.6324 70.1249 13.4319 65.6609C14.2315 61.1635 15.9305 57.066 18.5289 53.3681Z" fill="#0D131A"/>
<path d="M51.2594 35.2291C55.7568 35.0959 59.7877 35.6955 63.3523 37.028C63.9519 37.2612 64.2184 37.4944 64.1518 37.7276L63.1024 37.8276C55.3737 35.6955 47.1785 36.1286 38.517 39.1268C33.0202 40.9924 28.3896 43.6908 24.6252 47.222C24.1588 47.6551 23.8423 47.7883 23.6757 47.6218C23.4759 47.4219 23.5925 47.0888 24.0255 46.6224C27.5568 42.6247 32.2207 39.6265 38.0172 37.6277C42.448 36.1286 46.862 35.329 51.2594 35.2291Z" fill="#0D131A"/>
<path d="M84.0901 56.5165C85.7225 61.1471 86.1889 66.2108 85.4893 71.7075C84.6898 77.9372 82.4911 82.9342 78.8932 86.6987C78.4601 87.1651 78.1603 87.315 77.9938 87.1484C77.7939 86.9818 77.8772 86.6487 78.2436 86.149C81.3751 82.0514 83.274 77.121 83.9402 71.3578C84.5399 66.1608 84.0568 61.3803 82.4911 57.0162C80.1925 50.4535 76.3947 45.3065 71.0978 41.5754C70.5315 41.1756 70.3316 40.8758 70.4982 40.6759C70.6314 40.476 70.9979 40.5427 71.5975 40.8758C74.3959 42.5082 76.8944 44.6902 79.0931 47.4219C81.2585 50.1536 82.9242 53.1852 84.0901 56.5165Z" fill="#0D131A"/>
<path d="M22.5764 103.289L21.9768 104.038C21.577 103.739 21.2939 103.622 21.1273 103.689L20.9274 104.288L20.6276 104.938L19.878 104.738L19.1285 104.588C18.8953 104.688 18.762 105.021 18.7287 105.588L18.5288 106.537H17.6294L16.8798 106.687C16.7465 106.887 17.1296 107.77 18.0291 109.335L19.4283 111.784L18.8786 112.484C18.4788 112.883 18.2956 113.216 18.3289 113.483C18.3956 113.883 19.345 114.299 21.1773 114.732L25.4747 115.182L25.2249 116.381C23.7924 116.514 22.11 116.248 20.1778 115.582C18.2457 114.949 17.2129 114.316 17.0797 113.683C16.9797 113.083 17.3795 112.434 18.279 111.734C16.3801 108.569 15.5473 106.704 15.7804 106.137C15.8804 105.904 16.1802 105.754 16.6799 105.688L17.9292 105.787C17.8625 105.354 17.8959 104.921 18.0291 104.488C18.1291 104.055 18.2956 103.772 18.5288 103.639L19.2784 103.539C19.6115 103.605 19.8947 103.722 20.1279 103.889C20.1945 103.122 20.4277 102.689 20.8275 102.589L21.677 102.739L22.5764 103.289Z" fill="#0D131A"/>
<path d="M94.9338 98.7912C91.4358 103.222 87.155 106.32 82.0913 108.086C78.5934 109.285 74.6791 107.836 70.3483 103.738C65.9842 99.6074 64.8516 96.0761 66.9503 93.1445C69.0824 90.1796 71.9807 87.248 75.6452 84.3497C79.9093 80.9517 83.9236 78.7364 87.688 77.7037C89.0539 75.5383 89.9367 74.4056 90.3365 74.3057L91.7856 74.6055C92.4852 74.9386 93.1015 75.5216 93.6345 76.3545C95.4001 76.5877 96.8826 77.4038 98.0819 78.803C99.3478 80.2355 100.031 82.0011 100.131 84.0999C100.331 89.2302 98.5983 94.1273 94.9338 98.7912Z" fill="#FFE100"/>
<path d="M99.5809 81.5015C101.446 86.5318 100.147 92.0452 95.6832 98.0417C91.4857 103.738 86.9384 106.92 82.0413 107.586C86.5719 105.487 90.7028 101.64 94.4339 96.0429C98.1317 90.4795 99.8474 85.6324 99.5809 81.5015Z" fill="#F9BE00"/>
<path d="M92.1352 74.3058C92.8681 74.6389 93.4845 75.2053 93.9842 76.0048C98.1817 76.5045 100.48 79.4194 100.88 84.7496C101.213 89.2136 99.7308 93.7276 96.4327 98.2916C92.8348 103.189 88.1876 106.537 82.491 108.336L81.4416 108.236C81.3416 107.969 81.5915 107.719 82.1911 107.486C87.3547 105.521 91.6355 102.256 95.0335 97.692C98.3316 93.2612 99.8473 88.9971 99.5808 84.8995C99.2477 80.4355 97.3821 77.8037 93.9842 77.0042C93.5511 76.9709 93.2679 76.8043 93.1347 76.5045C92.9015 76.0714 92.485 75.7216 91.8854 75.4551L90.3363 75.2053C90.0365 75.3052 89.6367 75.7716 89.137 76.6044C88.6373 77.5039 88.2376 78.0036 87.9377 78.1035C84.04 79.636 80.6087 81.4516 77.6438 83.5503C74.1792 86.0155 70.8478 89.1637 67.6497 92.9947C67.25 93.4611 66.9335 93.611 66.7003 93.4445C66.5004 93.2779 66.5837 92.9281 66.9502 92.3951C70.4481 87.8644 74.1292 84.2999 77.9936 81.7014C80.7586 79.8359 83.8402 78.3534 87.2381 77.2541L88.4874 75.655C89.0871 74.6889 89.6367 74.1559 90.1364 74.0559C90.7694 73.8894 91.4357 73.9727 92.1352 74.3058Z" fill="#0D131A"/>
<path d="M90.9859 77.2539L91.8854 77.104C92.052 77.2039 91.9687 77.4371 91.6356 77.8036C91.2691 78.2367 91.0859 78.5198 91.0859 78.6531C91.0859 78.8863 91.1858 79.1528 91.3857 79.4526L91.6855 80.0523L91.2858 80.6019C91.0193 80.9018 90.886 81.2349 90.886 81.6013C90.886 82.0344 91.0193 82.4508 91.2858 82.8506L91.6855 83.6002L91.4357 84.1998C91.2358 84.5329 91.1525 84.8328 91.1858 85.0993C91.2191 85.3658 91.419 85.6989 91.7855 86.0987L92.3851 86.8482L92.1353 87.5978C92.002 87.9976 91.9687 88.364 92.0353 88.6971L92.8348 89.3967L94.184 89.8465C94.6171 89.8798 94.8337 90.013 94.8337 90.2462L94.284 90.646L92.4351 90.3462C91.7022 90.0463 91.2524 89.6466 91.0859 89.1469C90.9859 88.8804 90.9693 88.5306 91.0359 88.0975C91.1025 87.6311 91.2524 87.2647 91.4856 86.9982L90.6361 86.2986C90.3696 85.9654 90.2197 85.6323 90.1864 85.2992C90.0532 84.6995 90.2864 84.1332 90.886 83.6002C90.253 83.0671 89.8866 82.4508 89.7866 81.7513C89.72 81.0184 90.0532 80.402 90.7861 79.9023C90.353 79.5692 90.1364 79.1195 90.1364 78.5531C90.1031 78.3199 90.1864 78.0701 90.3863 77.8036L90.9859 77.2539Z" fill="#0D131A"/>
<path d="M18.5289 53.3681C18.8954 52.8351 19.1952 52.6352 19.4284 52.7685C19.6616 52.9351 19.6116 53.2849 19.2785 53.8179C17.0132 57.6823 15.5807 61.6799 14.981 65.8108C14.3814 69.975 14.6479 74.1059 15.7805 78.2034C17.0132 82.6675 19.2285 86.4319 22.4266 89.4968C25.5914 92.495 29.5058 94.6437 34.1697 95.943C35.0691 96.2095 35.4856 96.4593 35.4189 96.6925L33.9698 96.8424C29.1726 95.9096 24.9585 93.7942 21.3273 90.4962C17.6961 87.1981 15.2475 83.2505 13.9816 78.6532C12.8156 74.4557 12.6324 70.1249 13.4319 65.6609C14.2315 61.1635 15.9305 57.066 18.5289 53.3681Z" fill="#0D131A"/>
</g>
<defs>
<clipPath id="clip0_266_2">
<rect width="135" height="169" fill="white"/>
</clipPath>
</defs>
</svg>
